<svg width="32" height="33" viewBox="0 0 32 33" fill="none" xmlns="http://www.w3.org/2000/svg">
    <g clip-path="url(#clip0_77_48)">
        <path d="M9.33325 24.5C7.86658 24.5 6.67992 25.7 6.67992 27.1667C6.67992 28.6334 7.86658 29.8334 9.33325 29.8334C10.7999 29.8334 11.9999 28.6334 11.9999 27.1667C11.9999 25.7 10.7999 24.5 9.33325 24.5ZM1.33325 3.16669V5.83335H3.99992L8.79992 15.9534L6.99992 19.22C6.78658 19.5934 6.66658 20.0334 6.66658 20.5C6.66658 21.9667 7.86658 23.1667 9.33325 23.1667H25.3333V20.5H9.89325C9.70658 20.5 9.55992 20.3534 9.55992 20.1667L9.59992 20.0067L10.7999 17.8334H20.7333C21.7333 17.8334 22.6132 17.2867 23.0666 16.46L27.8399 7.80669C27.9466 7.62002 27.9999 7.39335 27.9999 7.16669C27.9999 6.43335 27.3999 5.83335 26.6666 5.83335H6.94659L5.69325 3.16669H1.33325ZM22.6666 24.5C21.1999 24.5 20.0133 25.7 20.0133 27.1667C20.0133 28.6334 21.1999 29.8334 22.6666 29.8334C24.1333 29.8334 25.3333 28.6334 25.3333 27.1667C25.3333 25.7 24.1333 24.5 22.6666 24.5Z" fill="#1D2F6F" fill-opacity="0.9"/>
    </g>
    <defs>
        <clipPath id="clip0_77_48">
            <rect width="32" height="32" fill="white" transform="translate(0 0.5)"/>
        </clipPath>
    </defs>
</svg>
