<svg width="40" height="40" viewBox="0 0 40 40" fill="none" xmlns="http://www.w3.org/2000/svg">
    <g clip-path="url(#clip0_77_30)">
        <path d="M19.9834 3.33301C10.7834 3.33301 3.33337 10.7997 3.33337 19.9997C3.33337 29.1997 10.7834 36.6663 19.9834 36.6663C29.2 36.6663 36.6667 29.1997 36.6667 19.9997C36.6667 10.7997 29.2 3.33301 19.9834 3.33301ZM20 33.333C12.6334 33.333 6.66671 27.3663 6.66671 19.9997C6.66671 12.633 12.6334 6.66634 20 6.66634C27.3667 6.66634 33.3334 12.633 33.3334 19.9997C33.3334 27.3663 27.3667 33.333 20 33.333Z" fill="#1D2F6F" fill-opacity="0.9"/>
        <path d="M20.8334 11.667H18.3334V21.667L27.0834 26.917L28.3334 24.867L20.8334 20.417V11.667Z" fill="#1D2F6F" fill-opacity="0.9"/>
    </g>
    <defs>
        <clipPath id="clip0_77_30">
            <rect width="40" height="40" fill="white"/>
        </clipPath>
    </defs>
</svg>
