<svg width="48" height="48" viewBox="0 0 48 48" fill="none" xmlns="http://www.w3.org/2000/svg">
    <g clip-path="url(#clip0_104_933)">
        <path d="M2.23349 9.35997C1.00037 9.35997 0 10.3598 0 11.5935V37.2705C0 38.5039 1.00051 39.504 2.23349 39.504H45.7666C46.9997 39.504 48 38.5041 48 37.2705V11.5934C48 10.36 46.9995 9.35992 45.7666 9.35992H2.23344L2.23349 9.35997ZM15.7395 12.9885C18.4794 12.9885 20.9957 13.9417 22.971 15.534C21.3091 17.021 20.0696 18.9746 19.458 21.189H20.4165C20.981 19.3622 22.0064 17.7358 23.358 16.446C24.7096 17.7358 25.735 19.3622 26.2995 21.189H27.273C26.653 18.9863 25.4117 17.0443 23.751 15.567C25.7301 13.9545 28.2563 12.9884 31.008 12.9884C37.358 12.9884 42.5055 18.1365 42.5055 24.4875C42.5055 30.8384 37.358 35.9865 31.008 35.9865C28.2106 35.9865 25.6454 34.988 23.652 33.327C25.4352 31.7756 26.7498 29.6959 27.351 27.33H26.4134C25.8796 29.3157 24.8052 31.0819 23.358 32.463C21.9108 31.0819 20.8378 29.3157 20.304 27.33H19.4114C20.0161 29.6616 21.3136 31.7122 23.07 33.249C21.0802 34.8894 18.5251 35.8755 15.7394 35.8755C9.38952 35.8755 4.242 30.7521 4.242 24.432C4.242 18.1118 9.38952 12.9885 15.7395 12.9885ZM30.1455 21.072C28.764 21.072 27.42 22.2797 27.42 24.5475C27.42 26.0512 28.146 27.0435 29.574 27.0435C29.9778 27.0436 30.621 26.8785 30.621 26.8785L30.834 25.5645C30.834 25.5645 30.247 25.8615 29.844 25.8615C28.9951 25.8615 28.6545 25.2086 28.6545 24.507C28.6545 23.0837 29.3849 22.3004 30.198 22.3004C30.8077 22.3004 31.2975 22.6455 31.2975 22.6455L31.4925 21.3675C31.4925 21.3675 30.7676 21.072 30.1455 21.072ZM41.76 21.183L40.5585 21.186L40.3005 22.767C40.3005 22.767 39.8488 22.1535 39.1425 22.1535C38.0443 22.1535 37.1295 23.4581 37.1295 24.9585C37.1295 25.927 37.6164 26.8769 38.6145 26.8769C39.3325 26.8769 39.7305 26.3835 39.7305 26.3835L39.678 26.8049H40.845L41.76 21.183ZM7.34698 21.1995L6.39 26.8349H7.54349L8.27251 22.5855L8.38051 26.8349H9.20549L10.7445 22.5855L10.062 26.8349H11.2875L12.2325 21.1995H10.3365L9.156 24.6569L9.09451 21.1995H7.34702L7.34698 21.1995ZM19.398 21.5655C19.3719 21.5916 18.7005 25.4634 18.7005 25.9349C18.7005 26.6332 19.0919 26.945 19.6425 26.94C20.0371 26.9366 20.3426 26.8375 20.484 26.796C20.4988 26.792 20.5275 26.784 20.5275 26.784L20.676 25.776C20.5953 25.776 20.4763 25.8105 20.3715 25.8105C19.9604 25.8105 19.9148 25.5917 19.941 25.4295L20.2725 23.373H20.898L21.0495 22.2584H20.46L20.58 21.5655H19.398ZM33.3405 22.1325C32.5354 22.1325 31.9185 22.398 31.9185 22.398L31.7475 23.433C31.7475 23.433 32.257 23.2215 33.027 23.2215C33.4642 23.2215 33.7845 23.2715 33.7845 23.6355C33.7845 23.8565 33.7455 23.9385 33.7455 23.9385C33.7455 23.9385 33.3998 23.9085 33.24 23.9085C32.2247 23.9085 31.158 24.3534 31.158 25.692C31.158 26.7466 31.8583 26.988 32.292 26.988C33.1204 26.988 33.4776 26.4377 33.4965 26.436L33.4575 26.895H34.491L34.953 23.583C34.9532 22.1777 33.7562 22.1324 33.3405 22.1324V22.1325ZM13.953 22.1385C13.1449 22.1385 12.525 22.404 12.525 22.404L12.354 23.439C12.354 23.439 12.8652 23.2275 13.638 23.2275C14.0768 23.2275 14.3985 23.2777 14.3985 23.6415C14.3985 23.8625 14.3595 23.9445 14.3595 23.9445C14.3595 23.9445 14.0128 23.9145 13.8525 23.9145C12.8333 23.9145 11.763 24.3587 11.763 25.6965C11.763 26.7506 12.4647 26.9925 12.9 26.9925C13.7314 26.9925 14.0899 26.4421 14.109 26.4405L14.07 26.8995H15.108L15.5715 23.589C15.5715 22.1845 14.3702 22.1384 13.953 22.1384V22.1385ZM17.619 22.1385C16.7513 22.1385 15.87 22.4887 15.87 23.685C15.87 25.0404 17.3385 24.9035 17.3385 25.4744C17.3385 25.8556 16.9287 25.887 16.6125 25.887C16.0653 25.887 15.5733 25.6979 15.5715 25.707L15.414 26.742C15.4423 26.7508 15.747 26.8875 16.731 26.8875C16.9952 26.8875 18.5055 26.9546 18.5055 25.3815C18.5055 23.9108 17.1075 24.2023 17.1075 23.6115C17.1075 23.3173 17.3345 23.2245 17.751 23.2245C17.9164 23.2245 18.5535 23.277 18.5535 23.277L18.7005 22.2315C18.7005 22.2316 18.2893 22.1385 17.619 22.1385ZM23.043 22.1385C21.8372 22.1387 20.9445 23.4353 20.9445 24.9C20.9445 26.5905 22.063 26.9925 23.016 26.9925C23.8956 26.9925 24.2835 26.796 24.2835 26.796L24.4935 25.6425C24.4935 25.6425 23.8243 25.9365 23.22 25.9365C21.9324 25.9365 22.158 24.978 22.158 24.978H24.5955C24.5955 24.978 24.753 24.2033 24.753 23.8875C24.753 23.0993 24.3596 22.1385 23.043 22.1385ZM27.4095 22.188C26.8663 22.188 26.463 22.9185 26.463 22.9185L26.571 22.248H25.443L24.6855 26.877H25.932C26.285 24.9003 26.3495 23.2952 27.192 23.589C27.3395 22.8239 27.4825 22.5283 27.6435 22.2045C27.6435 22.2045 27.5679 22.188 27.4095 22.188ZM37.509 22.188C36.9658 22.188 36.5625 22.9185 36.5625 22.9185L36.6705 22.248H35.5425L34.785 26.877H36.03C36.3832 24.9003 36.4493 23.2952 37.2915 23.589C37.4392 22.8239 37.5822 22.5283 37.743 22.2045C37.743 22.2045 37.6673 22.188 37.509 22.188ZM23.037 23.1825C23.7218 23.1825 23.5965 23.9555 23.5965 24.018H22.248C22.248 23.9382 22.3755 23.1825 23.037 23.1825ZM39.3315 23.2725C39.7674 23.2723 39.9915 23.5668 39.9915 24.2595C39.9915 24.888 39.6745 25.728 39.018 25.728C38.5823 25.728 38.3775 25.3681 38.3775 24.804C38.3775 23.8815 38.7996 23.2725 39.3315 23.2725ZM33.342 24.8475C33.5198 24.8477 33.5566 24.865 33.5865 24.873C33.5822 24.8723 33.5814 24.8731 33.5985 24.876C33.621 25.0821 33.474 26.049 32.763 26.049C32.3964 26.049 32.3025 25.7575 32.3025 25.5855C32.3025 25.25 32.4771 24.8475 33.342 24.8475ZM13.9545 24.852C14.1564 24.8522 14.1785 24.8748 14.2125 24.8805C14.2351 25.0865 14.0874 26.052 13.374 26.052C13.006 26.052 12.9105 25.7619 12.9105 25.59C12.9105 25.2547 13.0862 24.852 13.9545 24.852Z" fill="#04B315"/>
    </g>
    <defs>
        <clipPath id="clip0_104_933">
            <rect width="48" height="48" fill="white"/>
        </clipPath>
    </defs>
</svg>
