<svg width="48" height="32" viewBox="0 0 48 32" fill="none" xmlns="http://www.w3.org/2000/svg">
    <g clip-path="url(#clip0_104_931)">
        <path d="M44.8 32H3.2C2.35131 32 1.53737 31.6629 0.937258 31.0627C0.337142 30.4626 0 29.6487 0 28.8L0 3.2C0 2.35131 0.337142 1.53737 0.937258 0.937258C1.53737 0.337142 2.35131 0 3.2 0L44.8 0C45.6487 0 46.4626 0.337142 47.0627 0.937258C47.6629 1.53737 48 2.35131 48 3.2V28.8C48 29.6487 47.6629 30.4626 47.0627 31.0627C46.4626 31.6629 45.6487 32 44.8 32ZM23.7867 19.6827L23.308 22.6827C24.5313 23.1975 25.8523 23.4391 27.1787 23.3907H27.164C28.7183 23.4813 30.2575 23.0428 31.5307 22.1467L31.508 22.1613C32.0278 21.7793 32.4505 21.2803 32.7419 20.7047C33.0333 20.1292 33.1852 19.4931 33.1853 18.848V18.828C33.1853 17.3613 32.204 16.144 30.2693 15.2027C29.7414 14.9479 29.2364 14.6481 28.76 14.3067L28.7907 14.328C28.6576 14.2418 28.5468 14.1254 28.4673 13.9882C28.3878 13.851 28.3419 13.697 28.3333 13.5387V13.536C28.3433 13.3709 28.3949 13.2109 28.4832 13.0711C28.5716 12.9312 28.6938 12.8159 28.8387 12.736L28.844 12.7333C29.2916 12.4751 29.8058 12.3559 30.3213 12.3907H30.3133H30.42L30.5227 12.3893C31.3813 12.3893 32.196 12.5747 32.9307 12.9067L32.8933 12.892L33.2053 13.0587L33.684 10.164C32.716 9.78863 31.6862 9.59778 30.648 9.60133H30.5827H30.5867C29.0844 9.53556 27.6031 9.97287 26.3773 10.844L26.3987 10.8293C25.8892 11.1889 25.4735 11.6655 25.1865 12.2191C24.8995 12.7727 24.7496 13.3871 24.7493 14.0107V14.0173C24.736 15.428 25.752 16.6467 27.7707 17.644C28.304 17.8773 28.764 18.1627 29.176 18.5053L29.1667 18.4973C29.2856 18.5973 29.3823 18.7211 29.4505 18.8608C29.5187 19.0004 29.5569 19.1527 29.5627 19.308V19.3133C29.5627 19.7387 29.3093 20.104 28.944 20.268L28.9373 20.2707C28.5373 20.4813 28.0627 20.604 27.5587 20.604H27.4973H27.5H27.4C26.2573 20.604 25.1747 20.3507 24.204 19.8973L24.2507 19.9173L23.7933 19.688L23.7867 19.6827ZM37.2867 21.204H41.7067C41.7778 21.5089 41.9169 22.1756 42.124 23.204H45.3333L42.5413 9.82933H39.8747C39.4934 9.79555 39.1115 9.88563 38.7855 10.0862C38.4596 10.2868 38.207 10.5871 38.0653 10.9427L38.0613 10.9547L32.9413 23.204H36.568L37.296 21.2053L37.2867 21.204ZM19.8547 9.82933L17.6867 23.204H21.1453L23.312 9.82933H19.8547ZM6.56267 12.5587L9.376 23.1827H13.0213L18.4547 9.82933H14.7933L11.4147 18.9547L11.06 17.1L9.85467 10.9547C9.79005 10.6002 9.59027 10.2847 9.29748 10.0748C9.00468 9.86482 8.64178 9.77681 8.28533 9.82933L8.29333 9.828H2.71067L2.66933 10.0987C6.968 11.1907 9.792 13.5467 11.064 17.0987C10.6731 16.0837 10.0704 15.1637 9.296 14.4L9.29467 14.3987C8.53389 13.6175 7.62387 12.9972 6.61867 12.5747L6.56533 12.5547L6.56267 12.5587ZM41.1453 18.4533H38.2653C38.46 17.9396 38.9187 16.6951 39.6413 14.72L39.7027 14.532L39.916 13.9907C40.004 13.7693 40.0627 13.588 40.1027 13.4493L40.3533 14.5947L41.144 18.448L41.1453 18.4533Z" fill="#04B315"/>
    </g>
    <defs>
        <clipPath id="clip0_104_931">
            <rect width="48" height="32" fill="white"/>
        </clipPath>
    </defs>
</svg>
